<?xml version="1.0" encoding="UTF-8"?>
<svg width="240px" height="240px" viewBox="0 0 240 240" version="1.1" xmlns="http://www.w3.org/2000/svg" xmlns:xlink="http://www.w3.org/1999/xlink">
    <!-- Generator: Sketch 56.3 (81716) - https://sketch.com -->
    <title>s-alignContent-stretch</title>
    <desc>Created with Sketch.</desc>
    <g id="alignContent-stretch" stroke="none" stroke-width="1" fill="none" fill-rule="evenodd">
        <polygon id="Rectangle" fill="#000000" transform="translate(120.000000, 30.000000) rotate(90.000000) translate(-120.000000, -30.000000) " points="110 -70 130 -70 130 130 110 130"></polygon>
        <polygon id="Rectangle" fill="#000000" transform="translate(120.000000, 210.000000) rotate(90.000000) translate(-120.000000, -210.000000) " points="110 110 130 110 130 310 110 310"></polygon>
        <rect id="Rectangle" fill="#000000" transform="translate(150.000000, 82.500000) rotate(90.000000) translate(-150.000000, -82.500000) " x="117.5" y="57.5" width="65" height="50"></rect>
        <rect id="Rectangle" fill="#000000" transform="translate(90.000000, 82.500000) rotate(90.000000) translate(-90.000000, -82.500000) " x="57.5" y="57.5" width="65" height="50"></rect>
        <rect id="Rectangle" fill="#000000" transform="translate(150.000000, 157.500000) rotate(90.000000) translate(-150.000000, -157.500000) " x="117.5" y="132.5" width="65" height="50"></rect>
        <rect id="Rectangle" fill="#000000" transform="translate(90.000000, 157.500000) rotate(90.000000) translate(-90.000000, -157.500000) " x="57.5" y="132.5" width="65" height="50"></rect>
    </g>
</svg>