<?xml version="1.0" encoding="UTF-8"?>
<svg width="240px" height="240px" viewBox="0 0 240 240" version="1.1" xmlns="http://www.w3.org/2000/svg" xmlns:xlink="http://www.w3.org/1999/xlink">
    <!-- Generator: Sketch 57.1 (83088) - https://sketch.com -->
    <title>s-float-left</title>
    <desc>Created with Sketch.</desc>
    <g id="float-left" stroke="none" stroke-width="1" fill="none" fill-rule="evenodd">
        <g id="Group" transform="translate(20.000000, 60.000000)" fill="#000000" fill-rule="nonzero">
            <path d="M104.454862,70 L195.545138,70 C196.726923,70.001105 197.86057,69.4382404 198.696218,68.4354623 C199.531867,67.4326843 200,66.0723078 200,64.6541659 L200,55.3458341 C200,53.9276922 199.531867,52.5673157 198.696218,51.5645377 C197.86057,50.5617596 196.726923,49.998895 195.545138,50 L104.454862,50 C103.273077,49.998895 102.13943,50.5617596 101.303782,51.5645377 C100.468133,52.5673157 100,53.9276922 100,55.3458341 L100,64.6541659 C100,66.0723078 100.468133,67.4326843 101.303782,68.4354623 C102.13943,69.4382404 103.273077,70.001105 104.454862,70 Z M104.454862,20 L195.545138,20 C196.726923,20.001105 197.86057,19.4382404 198.696218,18.4354623 C199.531867,17.4326843 200,16.0723078 200,14.6541659 L200,5.34583409 C200,3.92769221 199.531867,2.56731574 198.696218,1.56453769 C197.86057,0.561759645 196.726923,-0.00110499833 195.545138,0 L104.454862,0 C103.273077,-0.00110499833 102.13943,0.561759645 101.303782,1.56453769 C100.468133,2.56731574 100,3.92769221 100,5.34583409 L100,14.6541659 C100,16.0723078 100.468133,17.4326843 101.303782,18.4354623 C102.13943,19.4382404 103.273077,20.001105 104.454862,20 Z M192.857136,100 L7.14285689,100 C3.19796596,100 0,102.984768 0,106.666667 L0,113.333333 C0,117.015232 3.19796596,120 7.14285689,120 L192.857136,120 C196.802027,120 200,117.015232 200,113.333333 L200,106.666667 C200,102.984768 196.802027,100 192.857136,100 Z M10,-1.80433653e-06 L70,-1.80433653e-06 C75.5228475,-1.80433654e-06 80,4.4771507 80,9.9999982 L80,69.9999982 C80,75.5228457 75.5228475,79.9999982 70,79.9999982 L10,79.9999982 C4.4771525,79.9999982 6.76353751e-16,75.5228457 0,69.9999982 L0,9.9999982 C-6.76353751e-16,4.4771507 4.4771525,-1.80433653e-06 10,-1.80433653e-06 Z" id="Shape"></path>
        </g>
    </g>
</svg>