<?xml version="1.0" encoding="UTF-8"?>
<svg width="300px" height="240px" viewBox="0 0 300 240" version="1.1" xmlns="http://www.w3.org/2000/svg" xmlns:xlink="http://www.w3.org/1999/xlink">
    <!-- Generator: Sketch 57.1 (83088) - https://sketch.com -->
    <title>s-textTransform-capitalize</title>
    <desc>Created with Sketch.</desc>
    <g id="textTransform-capitalize" stroke="none" stroke-width="1" fill="none" fill-rule="evenodd">
        <path d="M283,79.000013 L276,79.000013 C272.134007,79.000013 269,82.1091467 269,85.9444574 L269,91.5086935 C259.375,83.8047005 247.3175,79.000013 234,79.000013 C203.072054,79.000013 178,103.873082 178,134.555569 L178,148.444457 C178,179.126944 203.072054,204.000013 234,204.000013 C247.3175,204.000013 259.375,199.195325 269,191.491332 L269,197.055569 C269,200.890879 272.134007,204.000013 276,204.000013 L283,204.000013 C286.865993,204.000013 290,200.890879 290,197.055569 L290,85.9444574 C290,82.1091467 286.865993,79.000013 283,79.000013 Z M271,148.000013 C271,167.329979 255.106109,183.000013 235.5,183.000013 C215.893891,183.000013 200,167.329979 200,148.000013 L200,134.000013 C200,114.670047 215.893891,99.000013 235.5,99.000013 C255.106109,99.000013 271,114.670047 271,134.000013 L271,148.000013 Z M103.569623,40.5281503 C102.532926,37.7987313 99.9014572,35.9944155 96.9656685,36.000013 L78.0211236,36.000013 C75.0853349,35.9944155 72.4538656,37.7987313 71.4171688,40.5281503 L10.4538607,194.528126 C9.63622353,196.680779 9.93535564,199.095258 11.2540018,200.986556 C12.5726479,202.877854 14.7423992,204.004428 17.0578155,204.000013 L24.6039345,204.000013 C27.5397232,204.00561 30.1711925,202.201295 31.2078893,199.471876 L48.8536565,155.000013 L126.146343,155.000013 L143.805319,199.471876 C144.842015,202.201295 147.473485,204.00561 150.409273,204.000013 L157.942184,204.000013 C160.257601,204.004428 162.427352,202.877854 163.745998,200.986556 C165.064644,199.095258 165.363776,196.680779 164.546139,194.528126 L103.569623,40.5281503 Z M57,135.000013 L87,58.000013 L117,135.000013 L57,135.000013 Z" id="Shape" fill="#000000" fill-rule="nonzero"></path>
    </g>
</svg>