<?xml version="1.0" encoding="UTF-8"?>
<svg width="320px" height="240px" viewBox="0 0 320 240" version="1.1" xmlns="http://www.w3.org/2000/svg" xmlns:xlink="http://www.w3.org/1999/xlink">
    <!-- Generator: Sketch 57.1 (83088) - https://sketch.com -->
    <title>s-textTransform-uppercase</title>
    <desc>Created with Sketch.</desc>
    <g id="textTransform-uppercase" stroke="none" stroke-width="1" fill="none" fill-rule="evenodd">
        <g id="Group" transform="translate(165.000000, 36.000000)" fill="#000000" fill-rule="nonzero">
            <path d="M86.9656685,4.05172484e-14 C89.9014572,-0.00559748594 92.5329265,1.79871829 93.5696233,4.52813734 L93.5696233,4.52813734 L154.546139,158.528113 C155.363776,160.680766 155.064644,163.095245 153.745998,164.986543 C152.427352,166.877841 150.257601,168.004415 147.942184,168 L147.942184,168 L140.409273,168 C137.473485,168.005597 134.842015,166.201282 133.805319,163.471863 L133.805319,163.471863 L116.146343,119 L38.8536565,119 L21.2078893,163.471863 C20.1711925,166.201282 17.5397232,168.005597 14.6039345,168 L14.6039345,168 L7.05781552,168 C4.74239919,168.004415 2.5726479,166.877841 1.25400177,164.986543 C-0.0646443593,163.095245 -0.363776473,160.680766 0.45386072,158.528113 L0.45386072,158.528113 L61.4171688,4.52813734 C62.4538656,1.79871829 65.0853349,-0.00559748594 68.0211236,4.05172484e-14 L68.0211236,4.05172484e-14 Z M77,22 L47,99 L107,99 L77,22 Z" id="Combined-Shape"></path>
        </g>
        <g id="Group" transform="translate(0.000000, 36.000000)" fill="#000000" fill-rule="nonzero">
            <path d="M86.9656685,4.05172484e-14 C89.9014572,-0.00559748594 92.5329265,1.79871829 93.5696233,4.52813734 L93.5696233,4.52813734 L154.546139,158.528113 C155.363776,160.680766 155.064644,163.095245 153.745998,164.986543 C152.427352,166.877841 150.257601,168.004415 147.942184,168 L147.942184,168 L140.409273,168 C137.473485,168.005597 134.842015,166.201282 133.805319,163.471863 L133.805319,163.471863 L116.146343,119 L38.8536565,119 L21.2078893,163.471863 C20.1711925,166.201282 17.5397232,168.005597 14.6039345,168 L14.6039345,168 L7.05781552,168 C4.74239919,168.004415 2.5726479,166.877841 1.25400177,164.986543 C-0.0646443593,163.095245 -0.363776473,160.680766 0.45386072,158.528113 L0.45386072,158.528113 L61.4171688,4.52813734 C62.4538656,1.79871829 65.0853349,-0.00559748594 68.0211236,4.05172484e-14 L68.0211236,4.05172484e-14 Z M77,22 L47,99 L107,99 L77,22 Z" id="Combined-Shape"></path>
        </g>
    </g>
</svg>