<?xml version="1.0" encoding="UTF-8"?>
<svg width="300px" height="240px" viewBox="0 0 300 240" version="1.1" xmlns="http://www.w3.org/2000/svg" xmlns:xlink="http://www.w3.org/1999/xlink">
    <!-- Generator: Sketch 57.1 (83088) - https://sketch.com -->
    <title>s-textTransform-lowercase</title>
    <desc>Created with Sketch.</desc>
    <g id="textTransform-lowercase" stroke="none" stroke-width="1" fill="none" fill-rule="evenodd">
        <path d="M139,78 L132,78 C128.134007,78 125,81.1091337 125,84.9444444 L125,90.5086806 C115.375,82.8046875 103.3175,78 90,78 C59.072054,78 34,102.873069 34,133.555556 L34,147.444444 C34,178.126931 59.072054,203 90,203 C103.3175,203 115.375,198.195313 125,190.491319 L125,196.055556 C125,199.890866 128.134007,203 132,203 L139,203 C142.865993,203 146,199.890866 146,196.055556 L146,84.9444444 C146,81.1091337 142.865993,78 139,78 Z M127,147 C127,166.329966 111.106109,182 91.5,182 C71.8938914,182 56,166.329966 56,147 L56,133 C56,113.670034 71.8938914,98 91.5,98 C111.106109,98 127,113.670034 127,133 L127,147 Z" id="Shape" fill="#000000" fill-rule="nonzero"></path>
        <path d="M259,78 L252,78 C248.134007,78 245,81.1091337 245,84.9444444 L245,90.5086806 C235.375,82.8046875 223.3175,78 210,78 C179.072054,78 154,102.873069 154,133.555556 L154,147.444444 C154,178.126931 179.072054,203 210,203 C223.3175,203 235.375,198.195313 245,190.491319 L245,196.055556 C245,199.890866 248.134007,203 252,203 L259,203 C262.865993,203 266,199.890866 266,196.055556 L266,84.9444444 C266,81.1091337 262.865993,78 259,78 Z M247,147 C247,166.329966 231.106109,182 211.5,182 C191.893891,182 176,166.329966 176,147 L176,133 C176,113.670034 191.893891,98 211.5,98 C231.106109,98 247,113.670034 247,133 L247,147 Z" id="Shape" fill="#000000" fill-rule="nonzero"></path>
    </g>
</svg>